<svg xmlns="http://www.w3.org/2000/svg" viewBox="0 0 24 24" fill="currentColor">
  <path fill-rule="evenodd" clip-rule="evenodd" d="M1 5C1 2.79086 2.79086 1 5 1H19C21.2091 1 23 2.79086 23 5V19C23 21.2091 21.2091 23 19 23H5C2.79086 23 1 21.2091 1 19V5ZM18.9782 10.1972C20.1014 10.0845 21 10.9859 21 12.1127C21 12.9014 20.5507 13.5775 19.8768 13.9155V14.4789C19.8768 17.5211 16.3947 20 12.014 20C7.63339 20 4.15133 17.5211 4.15133 14.4789V13.9155C3.92668 13.9155 3.70203 13.6901 3.5897 13.5775C2.80343 12.7887 2.80343 11.5493 3.5897 10.7606C4.37598 9.97183 5.61154 9.97183 6.39782 10.7606C7.97036 9.6338 9.76755 9.07042 11.6771 9.07042L12.8003 4.22535C12.8003 4.11268 12.8003 4 12.9126 4H13.1373L16.2824 4.78873C16.507 4.33803 16.9563 4 17.5179 4C18.3042 4 18.9782 4.56338 18.9782 5.35211C18.9782 6.14084 18.4165 6.8169 17.6303 6.8169C16.844 6.8169 16.17 6.25352 16.17 5.46479L13.2496 4.78873L12.351 9.07042C14.2605 9.07042 16.0577 9.74648 17.6303 10.7606C17.9672 10.4225 18.5289 10.1972 18.9782 10.1972ZM8.86895 12.2254C8.19501 12.2254 7.52106 12.7887 7.52106 13.5775C7.52106 14.3662 8.08268 14.9296 8.86895 14.9296C9.5429 14.9296 10.2168 14.2535 10.2168 13.5775C10.2168 12.9014 9.65523 12.2254 8.86895 12.2254ZM12.014 18.3099C13.2496 18.4225 14.3729 17.9718 15.3838 17.2958C15.4961 17.0704 15.4961 16.8451 15.2715 16.7324C15.0468 16.6197 14.8222 16.6197 14.7098 16.7324C13.9236 17.2958 12.9126 17.6338 11.9017 17.5211C10.8908 17.6338 9.87988 17.2958 9.0936 16.7324C8.98128 16.6197 8.75663 16.6197 8.64431 16.7324C8.53198 16.9577 8.53198 17.1831 8.64431 17.2958C9.65523 17.9718 10.7785 18.3099 12.014 18.3099ZM13.6989 13.5775C13.6989 14.2535 14.2605 14.9296 15.0468 14.9296C15.8331 14.9296 16.507 14.3662 16.3947 13.5775C16.3947 12.9014 15.8331 12.2254 15.0468 12.2254C14.3729 12.2254 13.6989 12.9014 13.6989 13.5775Z" />
</svg> 