<svg width="1665" height="500" viewBox="0 0 1665 500" fill="none" xmlns="http://www.w3.org/2000/svg">
<path d="M651.66 359.998V139.898H730.71C757.163 139.898 777.107 144.651 790.54 154.158C803.973 163.665 810.69 178.751 810.69 199.418C810.69 212.025 807.073 222.565 799.84 231.038C792.607 239.305 782.583 244.368 769.77 246.228C785.683 248.088 797.98 253.771 806.66 263.278C815.547 272.785 819.99 284.875 819.99 299.548C819.99 319.595 813.273 334.681 799.84 344.808C786.407 354.935 767.29 359.998 742.49 359.998H651.66ZM685.14 233.828H730.09C744.763 233.828 756.13 231.038 764.19 225.458C772.25 219.878 776.28 212.025 776.28 201.898C776.28 180.611 760.883 169.968 730.09 169.968H685.14V233.828ZM685.14 329.928H741.56C755.407 329.928 766.153 327.138 773.8 321.558C781.653 315.771 785.58 307.401 785.58 296.448C785.58 285.701 781.653 277.331 773.8 271.338C766.153 265.345 755.407 262.348 741.56 262.348H685.14V329.928ZM922.157 363.718C906.45 363.718 892.707 360.205 880.927 353.178C869.147 345.945 860.053 335.921 853.647 323.108C847.24 310.295 844.037 295.105 844.037 277.538C844.037 259.971 847.24 244.781 853.647 231.968C860.053 219.155 869.147 209.235 880.927 202.208C892.707 194.975 906.45 191.358 922.157 191.358C937.863 191.358 951.607 194.975 963.387 202.208C975.167 209.235 984.26 219.155 990.667 231.968C997.073 244.781 1000.28 259.971 1000.28 277.538C1000.28 295.105 997.073 310.295 990.667 323.108C984.26 335.921 975.167 345.945 963.387 353.178C951.607 360.205 937.863 363.718 922.157 363.718ZM922.157 335.198C936.21 335.198 947.06 330.135 954.707 320.008C962.353 309.881 966.177 295.725 966.177 277.538C966.177 259.558 962.353 245.505 954.707 235.378C947.06 225.045 936.21 219.878 922.157 219.878C908.31 219.878 897.46 225.045 889.607 235.378C881.96 245.505 878.137 259.558 878.137 277.538C878.137 295.725 881.96 309.881 889.607 320.008C897.46 330.135 908.31 335.198 922.157 335.198ZM1027.29 359.998V195.078H1057.36L1058.29 226.388C1061.39 215.641 1066.14 207.788 1072.55 202.828C1079.16 197.661 1087.53 195.078 1097.66 195.078H1113.47V224.528H1097.66C1085.05 224.528 1075.65 227.628 1069.45 233.828C1063.25 240.028 1060.15 249.638 1060.15 262.658V359.998H1027.29ZM1189.27 363.718C1175.21 363.718 1163.02 360.205 1152.69 353.178C1142.35 346.151 1134.4 336.231 1128.82 323.418C1123.24 310.398 1120.45 295.105 1120.45 277.538C1120.45 259.971 1123.24 244.781 1128.82 231.968C1134.4 218.948 1142.35 208.925 1152.69 201.898C1163.02 194.871 1175.21 191.358 1189.27 191.358C1200.63 191.358 1210.76 193.735 1219.65 198.488C1228.53 203.241 1235.25 209.855 1239.8 218.328V139.898H1272.66V359.998H1241.97L1241.04 335.198C1236.49 344.291 1229.57 351.318 1220.27 356.278C1211.17 361.238 1200.84 363.718 1189.27 363.718ZM1197.95 335.198C1211.38 335.198 1221.71 330.135 1228.95 320.008C1236.18 309.881 1239.8 295.725 1239.8 277.538C1239.8 259.145 1236.18 244.988 1228.95 235.068C1221.71 224.941 1211.38 219.878 1197.95 219.878C1184.72 219.878 1174.18 225.045 1166.33 235.378C1158.47 245.505 1154.55 259.558 1154.55 277.538C1154.55 295.105 1158.47 309.158 1166.33 319.698C1174.18 330.031 1184.72 335.198 1197.95 335.198ZM1319.83 359.998V223.908H1296.89V197.248H1319.83V184.538C1319.83 170.898 1323.65 160.048 1331.3 151.988C1338.95 143.928 1350.93 139.898 1367.26 139.898H1396.4V166.868H1371.6C1358.99 166.868 1352.69 173.378 1352.69 186.398V197.248H1393.92V223.908H1352.69V359.998H1319.83ZM1478.89 363.718C1462.15 363.718 1448.93 358.241 1439.21 347.288C1429.5 336.335 1424.64 320.938 1424.64 301.098V195.078H1457.5V292.728C1457.5 307.608 1460.09 318.561 1465.25 325.588C1470.42 332.615 1478.27 336.128 1488.81 336.128C1500.8 336.128 1510.1 332.305 1516.71 324.658C1523.53 316.805 1526.94 305.851 1526.94 291.798V195.078H1559.8V359.998H1529.11L1528.8 333.028C1519.92 353.488 1503.28 363.718 1478.89 363.718ZM1636.04 359.998C1625.09 359.998 1616.31 357.208 1609.69 351.628C1603.29 346.048 1600.08 337.161 1600.08 324.968V139.898H1632.94V321.868C1632.94 329.308 1636.77 333.028 1644.41 333.028H1657.43V359.998H1636.04Z" fill="white"/>
<path d="M469 25H248V310H469V25Z" fill="black"/>
<path fill-rule="evenodd" clip-rule="evenodd" d="M15.6904 127.167C5.64356 137.211 0 150.839 0 165.048V446.428C0 476.013 23.9846 500 53.5714 500H334.953C349.161 500 362.788 494.354 372.833 484.309L484.309 372.833C494.357 362.788 500 349.161 500 334.952V53.5714C500 23.9868 476.016 0 446.428 0H165.047C150.839 0 137.212 5.64578 127.167 15.6904L15.6904 127.167ZM250 281.503C250 287.947 255.223 293.169 261.667 293.169H381.118C407.636 293.169 428.126 286.547 442.59 273.307C457.054 260.067 464.286 243.273 464.286 222.922C464.286 207.472 459.585 193.987 450.183 182.464C440.782 170.693 428.849 163.339 414.385 160.396C426.679 156.965 437.046 150.465 445.483 140.904C454.161 131.095 458.501 118.099 458.501 101.916C458.501 82.5456 451.51 66.7333 437.527 54.4739C423.787 41.966 403.778 35.7143 377.502 35.7143H261.667C255.223 35.7143 250 40.9372 250 47.3807V281.503Z" fill="white"/>
</svg>
